{"title":"Beta Test 2016 Movies HDRip XviD ESubs New Source +Sample ☻rDX☻","uid":15473331,"size":740491998,"categoryP":"video","categoryS":"movies","magnet":"?xt=urn:btih:8fad01d1633f3bff6fa21fdd9b6cf71b14c8f01b&amp;dn=Beta+Test+2016+Movies+HDRip+XviD+ESubs+New+Source+%2BSample+%E2%98%BBrDX%E2%98%BB&amp;tr=udp%3A%2F%2Ftracker.leechers-paradise.org%3A6969&amp;tr=udp%3A%2F%2Fzer0day.ch%3A1337&amp;tr=udp%3A%2F%2Fopen.demonii.com%3A1337&amp;tr=udp%3A%2F%2Ftracker.coppersurfer.tk%3A6969&amp;tr=udp%3A%2F%2Fexodus.desync.com%3A6969","seeders":0,"leechers":1,"uploader":"basicssom","files":3,"time":1470161482,"description":"----------------------------------------------------------------\r\nBeta Test 2016 English Movies HDRip XviD ESubs AAC New Source with Sample ☻rDX☻\r\n\r\nSCREEN SHOTS &amp; POSTER:\r\n  \nhttp://postimage.co.nr/2016/8/invest/index.htm  \nhttp://postimage.co.nr/2016/8/invest/1.html  \nhttp://postimage.co.nr/2016/8/invest/2.html  \nhttp://postimage.co.nr/2016/8/invest/3.html  \nhttp://postimage.co.nr/2016/8/invest/4.html  \nhttp://postimage.co.nr/2016/8/invest/5.html  \nhttp://postimage.co.nr/2016/8/invest/6.html  \nhttp://postimage.co.nr/2016/8/invest/7.html  \nhttp://postimage.co.nr/2016/8/invest/8.html  \nhttp://postimage.co.nr/2016/8/invest/9.html  \nhttp://postimage.co.nr/2016/8/invest/10.html\r\n\r\nFormat                                   : Matroska\r\nFormat version                           : Version 4 / Version 2\r\nFile size                                : 695 MiB\r\nDuration                                 : 1 h 27 min\r\nOverall bit rate                         : 1 109 kb/s\r\nMovie name                               : Beta Test 2016 English Movies HDRip XviD ESubs AAC New Source ☻rDX☻\r\n\r\nVideo\r\nID                                       : 1\r\nFormat                                   : MPEG-4 Visual\r\nFormat profile                           : Advanced   \r\nFormat settings, BVOP                    : 2\r\nFormat settings, QPel                    : No\r\nFormat settings, GMC                     : No warppoints\r\nFormat settings, Matrix                  : Default (H.263)\r\nMuxing mode                              : Packed bitstream\r\nCodec ID                                 : V_MS/VFW/FOURCC / XVID\r\nCodec ID/Hint                            : XviD\r\nDuration                                 : 1 h 27 min\r\nBit rate                                 : 959 kb/s\r\nWidth                                    : 640 pixels\r\nHeight                                   : 272 pixels\r\nDisplay aspect ratio                     : 2.35:1\r\nFrame rate mode                          : Constant\r\nFrame rate                               : 23.976 (24000/1001) FPS\r\nColor space                              : YUV\r\nChroma subsampling                       : 4:2:0\r\nBit depth                                : 8 bits\r\nScan type                                : Progressive\r\nCompression mode                         : Lossy\r\nBits/(Pixel*Frame)                       : 0.230\r\nStream size                              : 601 MiB (86%)\r\nTitle                                    : ☻rDX☻\r\nWriting library                          : XviD 64\r\nDefault                                  : Yes\r\nForced                                   : No\r\n\r\nAudio\r\nID                                       : 2\r\nFormat                                   : MPEG Audio\r\nFormat version                           : Version 1\r\nFormat profile                           : Layer 3\r\nMode                                     : Joint stereo\r\nMode extension                           : MS Stereo\r\nCodec ID                                 : A_MPEG/L3\r\nCodec ID/Hint                            : MP3\r\nDuration                                 : 1 h 28 min\r\nBit rate mode                            : Constant\r\nBit rate                                 : 128 kb/s\r\nChannel(s)                               : 2 channels\r\nSampling rate                            : 48.0 kHz\r\nCompression mode                         : Lossy\r\nStream size                              : 80.6 MiB (12%)\r\nTitle                                    : ☻rDX☻\r\nWriting library                          : LAME3.99r\r\nEncoding settings                        : -m j -V 4 -q 3 -lowpass 17 -b 128\r\nDefault                                  : Yes\r\nForced                                   : No\r\n\r\nIMDB \nhttp://www.imdb.com/title/tt4244162/","torrent":{"xt":"urn:btih:8fad01d1633f3bff6fa21fdd9b6cf71b14c8f01b","amp;dn":"Beta+Test+2016+Movies+HDRip+XviD+ESubs+New+Source+%2BSample+%E2%98%BBrDX%E2%98%BB","amp;tr":["udp%3A%2F%2Ftracker.leechers-paradise.org%3A6969","udp%3A%2F%2Fzer0day.ch%3A1337","udp%3A%2F%2Fopen.demonii.com%3A1337","udp%3A%2F%2Ftracker.coppersurfer.tk%3A6969","udp%3A%2F%2Fexodus.desync.com%3A6969"],"infoHash":"8fad01d1633f3bff6fa21fdd9b6cf71b14c8f01b","infoHashBuffer":{"type":"Buffer","data":[143,173,1,209,99,63,59,255,111,162,31,221,155,108,247,27,20,200,240,27]},"announce":[],"urlList":[]}}